<?xml version="1.0" encoding="UTF-8" standalone="no"?>
<svg
   xmlns:dc="http://purl.org/dc/elements/1.1/"
   xmlns:cc="http://creativecommons.org/ns#"
   xmlns:rdf="http://www.w3.org/1999/02/22-rdf-syntax-ns#"
   xmlns:svg="http://www.w3.org/2000/svg"
   xmlns="http://www.w3.org/2000/svg"
   xmlns:xlink="http://www.w3.org/1999/xlink"
   width="63.531731mm"
   height="12.98834mm"
   viewBox="0 0 225.11243 46.021678"
   id="svg2"
   version="1.1">
  <defs
     id="defs4">
    <linearGradient
       id="linearGradient4200">
      <stop
         id="stop4202"
         offset="0"
         style="stop-color:#ff4b55;stop-opacity:1;" />
      <stop
         id="stop4204"
         offset="1"
         style="stop-color:#d44e74;stop-opacity:1;" />
    </linearGradient>
    <linearGradient
       gradientUnits="userSpaceOnUse"
       y2="618.82117"
       x2="903.92816"
       y1="598.07489"
       x1="723.09503"
       id="linearGradient4206"
       xlink:href="#linearGradient4200" />
    <radialGradient
       gradientUnits="userSpaceOnUse"
       gradientTransform="matrix(1.8764087,0.32410695,-0.13592135,0.78706222,-412.58359,-17.852544)"
       r="112.55622"
       fy="752.49933"
       fx="571.74329"
       cy="752.49933"
       cx="571.74329"
       id="radialGradient4224"
       xlink:href="#linearGradient4200" />
  </defs>
  <metadata
     id="metadata7">
    <rdf:RDF>
      <cc:Work
         rdf:about="">
        <dc:format>image/svg+xml</dc:format>
        <dc:type
           rdf:resource="http://purl.org/dc/dcmitype/StillImage" />
        <dc:title></dc:title>
      </cc:Work>
    </rdf:RDF>
  </metadata>
  <g
     style="fill-opacity:1.0;fill:url(#linearGradient4206)"
     id="layer1"
     transform="translate(-701.7295,-583.63708)">
    <g
       style="fill-opacity:1;fill:url(#radialGradient4224)"
       transform="translate(197.64813,-156.99768)"
       id="g3565">
      <g
         id="text3518"
         style="font-style:normal;font-variant:normal;font-weight:normal;font-stretch:normal;font-size:47.36606598px;line-height:125%;font-family:Amaranth;-inkscape-font-specification:Amaranth;letter-spacing:0px;word-spacing:0px;fill:url(#radialGradient4224);fill-opacity:1;stroke:none;stroke-width:1px;stroke-linecap:butt;stroke-linejoin:miter;stroke-opacity:1">
        <path
           id="path3557"
           style="font-weight:bold;fill:url(#radialGradient4224);fill-opacity:1"
           d="m 643.3132,747.6268 c -1.79991,-2.03674 -4.21558,-3.93138 -9.28375,-3.93138 -9.66267,0 -14.30455,7.05754 -14.30455,16.86232 0,10.13633 4.31031,15.91499 14.02036,15.91499 3.83665,0 6.86808,-0.75785 8.81008,-1.56308 l -1.70517,-5.305 c -1.75255,0.7105 -3.93139,1.32625 -6.15759,1.32625 -5.02081,0 -6.53652,-4.45241 -6.53652,-10.89419 0,-6.72598 1.79991,-10.79946 5.87339,-10.79946 1.65782,0 3.26826,0.56839 5.02081,2.69986 l 4.26294,-4.31031 z" />
        <path
           id="path3559"
           style="font-weight:bold;fill:url(#radialGradient4224);fill-opacity:1"
           d="m 664.3393,753.45283 c -0.0947,0 -5.49447,-1.37362 -9.42585,-1.37362 -7.05755,0 -11.88888,5.35237 -11.88888,12.59937 0,7.10491 2.93669,11.79415 9.14165,11.79415 3.41035,0 5.44709,-1.70517 6.48915,-4.64187 0.56839,3.12616 2.27357,4.73661 2.27357,4.73661 l 6.01549,-1.89465 c 0,0 -2.60513,-2.41567 -2.60513,-9.8995 l 0,-11.32049 z m -10.94157,17.52544 c -2.27357,0 -2.41567,-3.26826 -2.41567,-6.77335 0,-3.83665 0.85259,-6.63125 3.93139,-6.63125 0.56839,0 1.51571,0.18947 1.94201,0.37893 l 0,5.49447 c 0,3.97875 -1.51572,7.5312 -3.45773,7.5312 z" />
        <path
           id="path3561"
           style="font-weight:bold;fill:url(#radialGradient4224);fill-opacity:1"
           d="m 701.91909,776.18854 0,-15.86763 c 0,-4.97344 -1.56308,-8.2417 -6.44179,-8.2417 -2.74723,0 -5.06816,0.94732 -6.72598,3.22089 -1.04205,-2.0841 -2.74723,-3.22089 -5.49446,-3.22089 -3.26826,0 -6.11022,1.37362 -7.62594,4.31031 -0.71049,-2.7946 -2.17884,-4.31031 -2.17884,-4.31031 l -6.01549,1.89464 c 0,0 2.60514,2.41567 2.60514,9.89951 l 0,12.31518 7.48384,0 0,-12.26781 c 0,-3.78929 1.56308,-6.20496 3.12616,-6.20496 1.37361,0 1.56308,1.46835 1.56308,3.69456 l 0,14.77821 7.5312,0 0,-12.50464 c 0,-3.59982 1.61045,-5.96813 3.12616,-5.96813 1.32625,0 1.56308,1.46835 1.56308,3.69456 l 0,14.77821 7.48384,0 z" />
        <path
           id="path3563"
           style="font-weight:bold;fill:url(#radialGradient4224);fill-opacity:1"
           d="m 715.36291,785.37755 0,-9.18901 c 0.75785,0.18946 1.65781,0.28419 2.46303,0.28419 6.48915,0 11.36786,-5.49446 11.36786,-12.552 0,-7.15228 -2.9367,-11.84152 -8.90482,-11.84152 -3.36299,0 -5.4471,1.84728 -6.63125,5.39973 -0.4263,-3.55245 -2.3683,-5.39973 -2.3683,-5.39973 l -6.0155,1.89464 c 0,0 2.60514,2.41567 2.60514,9.89951 l 0,22.78308 7.48384,-1.27889 z m 3.45772,-27.80388 c 2.27357,0 2.41567,3.26826 2.41567,6.82072 0,3.78928 -0.85259,6.58388 -3.93138,6.58388 -0.61576,0 -1.51572,-0.23683 -1.94201,-0.33156 l 0,-5.92076 c 0,-3.78929 1.51571,-7.15228 3.45772,-7.15228 z" />
      </g>
      <path
         id="text3025-8-56-2"
         d="m 531.11267,740.63476 -7.875,1.375 0,1.46875 0,6.96875 0,5.75 -11.25,0 c 0.0367,-2.33632 0.023,-4.82717 0.0312,-7.0625 l 0,-8.46875 -7.9375,1.375 0,1.4375 0,7.0625 0,25.4375 7.90625,0 0,-13.90625 11.25,0 0,13.90625 7.875,0 0,-26.9375 0,-5.5625 z m 59.25,0.53125 -7.59375,1.3125 0,33.5 7.59375,0 0,-10.31696 c 0.01,0.002 0.0213,-0.002 0.0312,0 6.35289,10.4308 0.11916,0.23496 6.34375,10.31696 l 7.68398,0 -7.83256,-12.00389 7.30228,-12.11218 -7.40365,0 -6.125,10.01786 0,-4.43304 z m -17.53125,10.25 c -6.67199,0 -11.65625,4.5475 -11.65625,13.1875 0,7.05598 3.26976,11.8125 11.09375,11.8125 4.272,0 7.10825,-1.577 7.15625,-1.625 l -1.40625,-5.0625 c -0.144,0.048 -2.49525,0.96875 -4.03125,0.96875 -2.064,0 -4.75,-0.85826 -4.75,-6.90625 0,-6.096 2.50975,-6.71875 4.09375,-6.71875 1.296,0 2.01325,0.71299 2.78125,1.625 l 3.71875,-3.875 c -1.488,-2.016 -3.88,-3.40625 -7,-3.40625 z m -25.75,0.125 c -7.15199,0 -12.0625,5.43726 -12.0625,12.78125 0,7.19998 2.96201,11.9375 9.25,11.9375 3.456,0 5.53775,-1.7115 6.59375,-4.6875 0.576,3.168 2.3125,4.78125 2.3125,4.78125 l 6.09375,-1.90625 c 0,0 -2.65625,-2.44727 -2.65625,-10.03125 l 0,-11.46875 c -0.096,0 -5.54725,-1.40625 -9.53125,-1.40625 z m 0,5.5625 c 0.576,0 1.53675,0.21424 1.96875,0.40625 l 0,5.5625 c 0,4.032 -1.56325,7.625 -3.53125,7.625 -2.304,0 -2.4375,-3.323 -2.4375,-6.875 0,-3.88801 0.88,-6.71875 4,-6.71875 z"
         style="font-style:normal;font-weight:normal;font-size:40px;line-height:125%;font-family:Sans;letter-spacing:0px;word-spacing:0px;fill:url(#radialGradient4224);fill-opacity:1;stroke:none" />
    </g>
  </g>
</svg>
